<?xml version="1.0" encoding="iso-8859-1"?>
<!-- Generator: Adobe Illustrator 19.0.0, SVG Export Plug-In . SVG Version: 6.00 Build 0)  -->
<svg version="1.1" xmlns="http://www.w3.org/2000/svg" xmlns:xlink="http://www.w3.org/1999/xlink" x="0px" y="0px"
	 viewBox="0 0 21.005 21.672" style="enable-background:new 0 0 21.005 21.672;" xml:space="preserve">
<g id="add-to-playlist">
	<path d="M3,0h2v3h3v2H5v3H3V5H0V3h3V0z"/>
	<path d="M10.975,4.818C10.968,4.896,10.96,4.973,10.95,5.05h8.056l-0.001,9.622h-1.5c-1.933,0-3.5,1.567-3.5,3.5s1.567,3.5,3.5,3.5
		c1.933,0,3.5-1.567,3.5-3.5V3.05H10.917c0.058,0.363,0.088,0.736,0.088,1.115C11.005,4.385,10.995,4.603,10.975,4.818z
		 M17.505,16.672c-0.829,0-1.5,0.671-1.5,1.5s0.671,1.5,1.5,1.5c0.248,0,0.482-0.06,0.688-0.167c0.482-0.25,0.812-0.752,0.812-1.333
		v-1.5H17.505z"/>
	<path d="M6.006,10.875c0.723-0.215,1.396-0.543,2-0.965v8.262c0,1.933-1.567,3.5-3.5,3.5s-3.5-1.567-3.5-3.5s1.567-3.5,3.5-3.5h1.5
		V10.875z M4.506,16.672c-0.829,0-1.5,0.671-1.5,1.5s0.671,1.5,1.5,1.5c0.828,0,1.5-0.671,1.5-1.5v-1.5H4.506z"/>
</g>
<g id="Layer_1">
</g>
</svg>
