<?xml version="1.0" encoding="iso-8859-1"?>
<!-- Generator: Adobe Illustrator 19.0.0, SVG Export Plug-In . SVG Version: 6.00 Build 0)  -->
<svg version="1.1" xmlns="http://www.w3.org/2000/svg" xmlns:xlink="http://www.w3.org/1999/xlink" x="0px" y="0px"
	 viewBox="0 0 21.947 21.914" style="enable-background:new 0 0 21.947 21.914;" xml:space="preserve">
<g id="add-to-queue">
	<path d="M3,0h2v3h3v2H5v3H3V5H0V3h3V0z"/>
	<path d="M11.051,4.489c-0.028,0.229-0.067,0.455-0.117,0.676h7.181c0.652,0,1.182,0.53,1.182,1.183s-0.53,1.182-1.182,1.182H9.916
		C9.453,8.218,8.872,8.819,8.201,9.304c-0.307,0.223-0.633,0.42-0.975,0.591H18.4c1.959,0,3.547-1.588,3.547-3.547
		S20.359,2.801,18.4,2.801h-7.345c0.032,0.271,0.048,0.547,0.048,0.828C11.103,3.92,11.086,4.207,11.051,4.489z"/>
	<path d="M21.066,13.854H3.028v2.365h18.038V13.854z"/>
	<path d="M3.028,19.549h18.038v2.365H3.028V19.549z"/>
</g>
<g id="Layer_1">
</g>
</svg>
