<?xml version="1.0" encoding="iso-8859-1"?>
<!-- Generator: Adobe Illustrator 19.0.0, SVG Export Plug-In . SVG Version: 6.00 Build 0)  -->
<svg version="1.1" xmlns="http://www.w3.org/2000/svg" xmlns:xlink="http://www.w3.org/1999/xlink" x="0px" y="0px"
	 viewBox="0 0 18.264 18.263" style="enable-background:new 0 0 18.264 18.263;" xml:space="preserve">
<g id="close">
	<path d="M17.97,0.293c-0.39-0.39-1.023-0.39-1.414,0L9.132,7.716L1.707,0.293c-0.391-0.39-1.024-0.39-1.414,0
		c-0.391,0.391-0.391,1.024,0,1.414l7.424,7.425l-7.424,7.425c-0.391,0.39-0.391,1.023,0,1.414c0.39,0.39,1.023,0.39,1.414,0
		l7.424-7.425l7.425,7.425c0.391,0.39,1.024,0.39,1.414,0c0.391-0.391,0.391-1.024,0-1.415l-7.424-7.424l7.424-7.425
		C18.361,1.316,18.361,0.684,17.97,0.293z"/>
</g>
<g id="Layer_1">
</g>
</svg>
