<?xml version="1.0" encoding="iso-8859-1"?>
<!-- Generator: Adobe Illustrator 19.0.0, SVG Export Plug-In . SVG Version: 6.00 Build 0)  -->
<svg version="1.1" xmlns="http://www.w3.org/2000/svg" xmlns:xlink="http://www.w3.org/1999/xlink" x="0px" y="0px"
	 viewBox="0 0 19.185 16.892" style="enable-background:new 0 0 19.185 16.892;" xml:space="preserve">
<g id="current-device">
	<path d="M0,2c0-1.029,0.778-1.877,1.778-1.988V0H5v2H2v8.125h3v2H2v0.014c-1.104,0-2-0.895-2-2V2z"/>
	<path d="M5,14.892v2H2v-2H5z"/>
	<path d="M13.073,6.637c0.829,0,1.5-0.671,1.5-1.5c0-0.829-0.671-1.5-1.5-1.5c-0.828,0-1.5,0.671-1.5,1.5
		C11.573,5.966,12.245,6.637,13.073,6.637z"/>
	<path d="M15.573,11.125c0,1.381-1.119,2.5-2.5,2.5c-1.38,0-2.5-1.119-2.5-2.5c0-1.381,1.12-2.5,2.5-2.5
		C14.454,8.625,15.573,9.744,15.573,11.125z"/>
	<path d="M8.962,0c-1.104,0-2,0.896-2,2v12.892c0,1.104,0.896,2,2,2h8.223c1.104,0,2-0.896,2-2V2c0-1.104-0.896-2-2-2H8.962z
		 M8.962,2h8.223v12.892H8.962V2z"/>
</g>
<g id="Layer_1">
</g>
</svg>
