<?xml version="1.0" encoding="iso-8859-1"?>
<!-- Generator: Adobe Illustrator 19.0.0, SVG Export Plug-In . SVG Version: 6.00 Build 0)  -->
<svg version="1.1" xmlns="http://www.w3.org/2000/svg" xmlns:xlink="http://www.w3.org/1999/xlink" x="0px" y="0px"
	 viewBox="0 0 20.113 21.021" style="enable-background:new 0 0 20.113 21.021;" xml:space="preserve">
<g id="home-fill">
	<path style="stroke:#FFFFFF;stroke-width:2;" d="M9.921,1.014L1.049,6.245C1.018,6.264,1,6.297,1,6.331v13.589
		c0,0.056,0.044,0.1,0.1,0.1h6.322c0.056,0,0.1-0.044,0.1-0.1v-6.794c0-0.055,0.045-0.1,0.1-0.1h4.876c0.055,0,0.1,0.045,0.1,0.1
		v6.794c0,0.056,0.045,0.1,0.1,0.1h6.315c0.056,0,0.1-0.044,0.1-0.1V6.333c0-0.036-0.019-0.069-0.05-0.087l-9.041-5.232
		C9.991,0.995,9.952,0.995,9.921,1.014z"/>
</g>
<g id="Layer_1">
</g>
</svg>
