<?xml version="1.0" encoding="iso-8859-1"?>
<!-- Generator: Adobe Illustrator 19.0.0, SVG Export Plug-In . SVG Version: 6.00 Build 0)  -->
<svg version="1.1" xmlns="http://www.w3.org/2000/svg" xmlns:xlink="http://www.w3.org/1999/xlink" x="0px" y="0px"
	 viewBox="0 0 23.58 26" style="enable-background:new 0 0 23.58 26;" xml:space="preserve">
<g id="next">
	<path d="M21.58,1c0.55,0,1,0.448,1,1v22c0,0.552-0.45,1-1,1h-2.14c-0.55,0-1-0.448-1-1v-9.292L1.75,24.555
		C1.42,24.752,1,24.511,1,24.124V1.867c0-0.385,0.42-0.626,0.75-0.433l16.69,9.647V2c0-0.552,0.45-1,1-1H21.58z"/>
	<defs>
		<filter id="Adobe_OpacityMaskFilter" filterUnits="userSpaceOnUse" x="0" y="0" width="23.58" height="26">
			<feColorMatrix  type="matrix" values="1 0 0 0 0  0 1 0 0 0  0 0 1 0 0  0 0 0 1 0"/>
		</filter>
	</defs>
	<mask maskUnits="userSpaceOnUse" x="0" y="0" width="23.58" height="26" id="path-18-inside-2_64_218_1_">
		<path style="fill:#FFFFFF;filter:url(#Adobe_OpacityMaskFilter);" d="M456.77,249c0.55,0,1,0.448,1,1v22c0,0.552-0.45,1-1,1h-2.14
			c-0.55,0-1-0.448-1-1v-9.292l-16.69,9.847c-0.33,0.197-0.75-0.044-0.75-0.431v-22.257c0-0.385,0.42-0.626,0.75-0.433l16.69,9.647
			V250c0-0.552,0.45-1,1-1H456.77z"/>
	</mask>
	<path style="mask:url(#path-18-inside-2_64_218_1_);" d="M18.44,14.708l-0.5-0.861l1.5-0.89v1.751H18.44z M1.75,24.555l-0.5-0.861
		l0,0L1.75,24.555z M1,24.124h1H1z M1,1.867H0l0,0H1z M1.75,1.434l-0.5,0.865l0,0L1.75,1.434z M18.44,11.081h1v1.733l-1.5-0.867
		L18.44,11.081z M21.58,2L21.58,2V0c1.11,0,2,0.895,2,2H21.58z M21.58,24V2h2v22H21.58z M21.58,24L21.58,24h2c0,1.105-0.89,2-2,2V24
		z M19.44,24h2.14v2h-2.14V24z M19.44,24v2c-1.1,0-2-0.895-2-2H19.44z M19.44,14.708V24h-2v-9.292H19.44z M1.25,23.694l16.69-9.847
		l1.01,1.722L2.26,25.416L1.25,23.694z M2,24.124c0-0.387-0.42-0.627-0.75-0.43l1.01,1.722c-1,0.59-2.26-0.131-2.26-1.292H2z
		 M2,1.867v22.257H0V1.867H2z M1.25,2.299C1.58,2.492,2,2.251,2,1.867H0C0,0.712,1.25-0.01,2.25,0.568L1.25,2.299z M17.94,11.947
		L1.25,2.299l1-1.731l16.69,9.647L17.94,11.947z M19.44,2v9.081h-2V2H19.44z M19.44,2h-2c0-1.105,0.9-2,2-2V2z M21.58,2h-2.14V0
		h2.14V2z"/>
</g>
<g id="Layer_1">
</g>
</svg>
