<?xml version="1.0" encoding="iso-8859-1"?>
<!-- Generator: Adobe Illustrator 19.0.0, SVG Export Plug-In . SVG Version: 6.00 Build 0)  -->
<svg version="1.1" xmlns="http://www.w3.org/2000/svg" xmlns:xlink="http://www.w3.org/1999/xlink" x="0px" y="0px"
	 viewBox="0 0 22.36 23.158" style="enable-background:new 0 0 22.36 23.158;" xml:space="preserve">
<g id="notification-active">
	<path d="M5.43,8.872C5.38,8.874,5.32,8.875,5.26,8.875c-0.64,0-1.26-0.123-1.83-0.347v4.081l-1.79,3.233L0,18.811h3.39h4.04v0.179
		v0.505c0,2.023,1.64,3.663,3.66,3.663s3.66-1.64,3.66-3.663V18.99v-0.179h4.04h3.57l-1.87-3.047l-1.97-3.213V7c0-3.866-3.14-7-7-7
		h-1.09c-0.6,0-1.19,0.077-1.75,0.222c0.53,0.499,0.96,1.114,1.23,1.805C10.08,2.009,10.26,2,10.43,2h1.09c2.76,0,5,2.239,5,5v4.109
		v1.997v0.003h-0.01l0.01,0.007l1.04,1.695l0.18,0.298l1.05,1.702h-2.35H5.68H3.39l0.94-1.702l0.17-0.298l0.93-1.685l0.01-0.017
		H5.43v-0.005v-1.995V8.872z M9.43,19.495c0,0.657,0.38,1.225,0.93,1.495c0.22,0.107,0.47,0.168,0.73,0.168s0.51-0.061,0.73-0.168
		c0.55-0.27,0.93-0.838,0.93-1.495V18.99h-1.32h-0.68H9.43V19.495z"/>
	<circle cx="5.26" cy="3.875" r="3"/>
</g>
<g id="Layer_1">
</g>
</svg>
