<?xml version="1.0" encoding="iso-8859-1"?>
<!-- Generator: Adobe Illustrator 19.0.0, SVG Export Plug-In . SVG Version: 6.00 Build 0)  -->
<svg version="1.1" xmlns="http://www.w3.org/2000/svg" xmlns:xlink="http://www.w3.org/1999/xlink" x="0px" y="0px"
	 viewBox="0 0 18 3" style="enable-background:new 0 0 18 3;" xml:space="preserve">
<g id="options">
	<path d="M3,1.5C3,2.329,2.328,3,1.5,3C0.671,3,0,2.329,0,1.5S0.671,0,1.5,0c0.427,0,0.813,0.179,1.086,0.466
		C2.842,0.735,3,1.099,3,1.5z"/>
	<path d="M10.5,1.5C10.5,2.329,9.828,3,9,3C8.171,3,7.5,2.329,7.5,1.5S8.171,0,9,0C9.828,0,10.5,0.671,10.5,1.5z"/>
	<path d="M16.5,3C17.328,3,18,2.329,18,1.5S17.328,0,16.5,0C15.671,0,15,0.671,15,1.5S15.671,3,16.5,3z"/>
</g>
<g id="Layer_1">
</g>
</svg>
