<?xml version="1.0" encoding="iso-8859-1"?>
<!-- Generator: Adobe Illustrator 19.0.0, SVG Export Plug-In . SVG Version: 6.00 Build 0)  -->
<svg version="1.1" xmlns="http://www.w3.org/2000/svg" xmlns:xlink="http://www.w3.org/1999/xlink" x="0px" y="0px"
	 viewBox="0 0 14.071 18.064" style="enable-background:new 0 0 14.071 18.064;" xml:space="preserve">
<g id="pause">
	<path d="M-741.5,365.936c-0.277,0-0.5,0.224-0.5,0.5V383.5c0,0.276,0.223,0.5,0.5,0.5h3c0.276,0,0.5-0.224,0.5-0.5v-17.064
		c0-0.276-0.224-0.5-0.5-0.5H-741.5z M-731.429,365.936c-0.276,0-0.5,0.224-0.5,0.5V383.5c0,0.276,0.224,0.5,0.5,0.5h3
		c0.276,0,0.5-0.224,0.5-0.5v-17.064c0-0.276-0.224-0.5-0.5-0.5H-731.429z"/>
</g>
<g id="Layer_1">
</g>
</svg>
