<?xml version="1.0" encoding="iso-8859-1"?>
<!-- Generator: Adobe Illustrator 19.0.0, SVG Export Plug-In . SVG Version: 6.00 Build 0)  -->
<svg version="1.1" xmlns="http://www.w3.org/2000/svg" xmlns:xlink="http://www.w3.org/1999/xlink" x="0px" y="0px"
	 viewBox="0 0 23.58 26" style="enable-background:new 0 0 23.58 26;" xml:space="preserve">
<g id="prev">
	<path d="M2,1C1.45,1,1,1.448,1,2v22c0,0.552,0.45,1,1,1h2.14c0.55,0,1-0.448,1-1v-9.292l16.69,9.847
		c0.33,0.197,0.75-0.044,0.75-0.431V1.867c0-0.385-0.42-0.626-0.75-0.433L5.14,11.081V2c0-0.552-0.45-1-1-1H2z"/>
	<defs>
		<filter id="Adobe_OpacityMaskFilter" filterUnits="userSpaceOnUse" x="0" y="0" width="23.58" height="26">
			<feColorMatrix  type="matrix" values="1 0 0 0 0  0 1 0 0 0  0 0 1 0 0  0 0 0 1 0"/>
		</filter>
	</defs>
	<mask maskUnits="userSpaceOnUse" x="0" y="0" width="23.58" height="26" id="path-16-inside-1_64_218_1_">
		<path style="fill:#FFFFFF;filter:url(#Adobe_OpacityMaskFilter);" d="M313.19,249c-0.55,0-1,0.448-1,1v22c0,0.552,0.45,1,1,1h2.14
			c0.55,0,1-0.448,1-1v-9.292l16.69,9.847c0.33,0.197,0.75-0.044,0.75-0.431v-22.257c0-0.385-0.42-0.626-0.75-0.433l-16.69,9.647
			V250c0-0.552-0.45-1-1-1H313.19z"/>
	</mask>
	<path style="mask:url(#path-16-inside-1_64_218_1_);" d="M5.14,14.708l0.51-0.861l-1.51-0.89v1.751H5.14z M21.83,24.555l0.51-0.861
		l0,0L21.83,24.555z M22.58,24.124h-1H22.58z M22.58,1.867h1l0,0H22.58z M21.83,1.434l0.5,0.865l0,0L21.83,1.434z M5.14,11.081h-1
		v1.733l1.5-0.867L5.14,11.081z M2,2L2,2V0C0.9,0,0,0.895,0,2H2z M2,24V2H0v22H2z M2,24L2,24H0c0,1.105,0.9,2,2,2V24z M4.14,24H2v2
		h2.14V24z M4.14,24v2c1.1,0,2-0.895,2-2H4.14z M4.14,14.708V24h2v-9.292H4.14z M22.34,23.694L5.65,13.847l-1.02,1.722l16.69,9.847
		L22.34,23.694z M21.58,24.124c0-0.387,0.42-0.627,0.76-0.43l-1.02,1.722c1,0.59,2.26-0.131,2.26-1.292H21.58z M21.58,1.867v22.257
		h2V1.867H21.58z M22.33,2.299C22,2.492,21.58,2.251,21.58,1.867h2c0-1.155-1.25-1.877-2.25-1.299L22.33,2.299z M5.64,11.947
		l16.69-9.648l-1-1.731L4.64,10.215L5.64,11.947z M4.14,2v9.081h2V2H4.14z M4.14,2h2c0-1.105-0.9-2-2-2V2z M2,2h2.14V0H2V2z"/>
</g>
<g id="Layer_1">
</g>
</svg>
