<?xml version="1.0" encoding="iso-8859-1"?>
<!-- Generator: Adobe Illustrator 19.0.0, SVG Export Plug-In . SVG Version: 6.00 Build 0)  -->
<svg version="1.1" xmlns="http://www.w3.org/2000/svg" xmlns:xlink="http://www.w3.org/1999/xlink" x="0px" y="0px"
	 viewBox="0 0 16 16.164" style="enable-background:new 0 0 16 16.164;" xml:space="preserve">
<g id="queue">
	<path d="M0,3c0-1.657,1.344-3,3-3h10c1.657,0,3,1.343,3,3c0,1.656-1.343,3-3,3H3C1.344,6,0,4.656,0,3z M2.242,3
		c0-0.553,0.447-1,1-1h9.517c0.553,0,1,0.447,1,1c0,0.552-0.447,1-1,1H3.242C2.689,4,2.242,3.552,2.242,3z"/>
	<path d="M0,9.348h16v2H0V9.348z"/>
	<path d="M0,14.164h16v2H0V14.164z"/>
</g>
<g id="Layer_1">
</g>
</svg>
