<?xml version="1.0" encoding="iso-8859-1"?>
<!-- Generator: Adobe Illustrator 19.0.0, SVG Export Plug-In . SVG Version: 6.00 Build 0)  -->
<svg version="1.1" xmlns="http://www.w3.org/2000/svg" xmlns:xlink="http://www.w3.org/1999/xlink" x="0px" y="0px"
	 viewBox="0 0 22 19.104" style="enable-background:new 0 0 22 19.104;" xml:space="preserve">
<g id="radio">
	<path d="M0,9.596C0,5.475,2.267,1.884,5.621,0l0.964,1.752C3.849,3.296,2,6.23,2,9.596c0,3.288,1.764,6.165,4.396,7.735
		l-0.931,1.773C2.197,17.198,0,13.653,0,9.596z"/>
	<path d="M16.535,19.104C19.804,17.198,22,13.654,22,9.596c0-4.116-2.261-7.704-5.608-9.59l-0.931,1.772
		C18.173,3.328,20,6.249,20,9.596c0,3.303-1.778,6.19-4.43,7.756L16.535,19.104z"/>
	<path d="M14.605,15.598C16.64,14.373,18,12.144,18,9.596c0-2.578-1.394-4.831-3.469-6.046l-1.165,2.218
		C14.647,6.561,15.5,7.979,15.5,9.596c0,1.604-0.838,3.011-2.101,3.808L14.605,15.598z"/>
	<path d="M8.495,13.334C7.292,12.527,6.5,11.154,6.5,9.596c0-1.667,0.907-3.123,2.254-3.9L7.549,3.505C5.43,4.708,4,6.985,4,9.596
		c0,2.52,1.331,4.728,3.328,5.961L8.495,13.334z"/>
	<path d="M11,11.596c1.105,0,2-0.895,2-2c0-1.104-0.895-2-2-2c-1.104,0-2,0.896-2,2C9,10.701,9.896,11.596,11,11.596z"/>
</g>
<g id="Layer_1">
</g>
</svg>
