<?xml version="1.0" encoding="iso-8859-1"?>
<!-- Generator: Adobe Illustrator 19.0.0, SVG Export Plug-In . SVG Version: 6.00 Build 0)  -->
<svg version="1.1" xmlns="http://www.w3.org/2000/svg" xmlns:xlink="http://www.w3.org/1999/xlink" x="0px" y="0px"
	 viewBox="0 0 21.999 21.999" style="enable-background:new 0 0 21.999 21.999;" xml:space="preserve">
<g id="recently-played">
	<path d="M1.142,10.082C0.537,10.025-0.005,10.471,0,11.078c0.013,1.879,0.508,3.73,1.446,5.373c1.12,1.962,2.816,3.532,4.86,4.496
		c2.043,0.964,4.333,1.275,6.56,0.892c2.226-0.383,4.281-1.443,5.884-3.035c1.603-1.592,2.677-3.639,3.076-5.862
		c0.399-2.224,0.104-4.517-0.845-6.567c-0.95-2.05-2.508-3.758-4.462-4.891C14.883,0.535,13.036,0.027,11.157,0
		C10.55-0.009,10.1,0.529,10.152,1.135c0.052,0.605,0.586,1.046,1.194,1.07c1.427,0.056,2.824,0.459,4.069,1.182
		c1.564,0.907,2.81,2.273,3.569,3.913c0.76,1.64,0.996,3.474,0.677,5.253c-0.319,1.779-1.179,3.417-2.461,4.69
		c-1.283,1.274-2.926,2.121-4.708,2.428c-1.781,0.307-3.613,0.057-5.248-0.714C5.61,18.186,4.252,16.93,3.356,15.36
		c-0.713-1.25-1.106-2.65-1.152-4.078C2.184,10.675,1.747,10.138,1.142,10.082z"/>
	<path d="M7.236,2.364c0,0.661-0.536,1.197-1.197,1.197c-0.662,0-1.198-0.536-1.198-1.197c0-0.662,0.536-1.198,1.198-1.198
		C6.7,1.166,7.236,1.702,7.236,2.364z"/>
	<path d="M3.621,6.058c0,0.661-0.536,1.198-1.198,1.198c-0.661,0-1.197-0.537-1.197-1.198c0-0.662,0.536-1.198,1.197-1.198
		C3.085,4.86,3.621,5.396,3.621,6.058z"/>
	<path d="M11.135,4.047c-0.54,0-0.979,0.438-0.979,0.979v7.045h4.957c0.562,0,1.017-0.455,1.017-1.017
		c0-0.562-0.455-1.018-1.017-1.018h-2.999v-5.01C12.114,4.485,11.675,4.047,11.135,4.047z"/>
</g>
<g id="Layer_1">
</g>
</svg>
