<?xml version="1.0" encoding="iso-8859-1"?>
<!-- Generator: Adobe Illustrator 19.0.0, SVG Export Plug-In . SVG Version: 6.00 Build 0)  -->
<svg version="1.1" xmlns="http://www.w3.org/2000/svg" xmlns:xlink="http://www.w3.org/1999/xlink" x="0px" y="0px"
	 viewBox="0 0 18.8 18.258" style="enable-background:new 0 0 18.8 18.258;" xml:space="preserve">
<g id="repeat">
	<path d="M15.34,1.732c0.95,0,1.73,0.776,1.73,1.733v8.299c0,0.957-0.78,1.732-1.73,1.732h-4.25l1.68-1.674
		c0.22-0.337,0.17-0.798-0.13-1.099c-0.3-0.303-0.76-0.345-1.1-0.123l-3.15,3.15c-0.34,0.338-0.34,0.887,0,1.225l3.12,3.12
		c0.34,0.247,0.82,0.213,1.13-0.097c0.3-0.303,0.34-0.768,0.12-1.106l-1.67-1.663h4.25c1.91,0,3.46-1.552,3.46-3.465V3.465
		C18.8,1.551,17.25,0,15.34,0H3.47C1.55,0,0,1.551,0,3.465v8.299c0,1.913,1.55,3.465,3.47,3.465h2.66v-1.733H3.47
		c-0.96,0-1.74-0.775-1.74-1.732V3.465c0-0.957,0.78-1.733,1.74-1.733H15.34z"/>
</g>
<g id="Layer_1">
</g>
</svg>
