<?xml version="1.0" encoding="iso-8859-1"?>
<!-- Generator: Adobe Illustrator 19.0.0, SVG Export Plug-In . SVG Version: 6.00 Build 0)  -->
<svg version="1.1" xmlns="http://www.w3.org/2000/svg" xmlns:xlink="http://www.w3.org/1999/xlink" x="0px" y="0px"
	 viewBox="0 0 18.24 24" style="enable-background:new 0 0 18.24 24;" xml:space="preserve">
<g id="repeat-active">
	<path d="M10.57,7.87H8.32V2.628L7.11,2.762V1.331C7.36,1.295,7.57,1.254,7.74,1.21c0.17-0.045,0.35-0.115,0.53-0.209
		c0.19-0.094,0.35-0.224,0.49-0.389C8.89,0.446,9,0.242,9.09,0h1.48V7.87z"/>
	<path d="M4.77,0.416H3.36C1.51,0.416,0,1.92,0,3.776v8.049c0,1.855,1.51,3.36,3.36,3.36h2.59v-1.68H3.36
		c-0.92,0-1.68-0.752-1.68-1.68V3.776c0-0.928,0.76-1.68,1.68-1.68h1.41V0.416z"/>
	<path d="M13.47,2.096h1.41c0.92,0,1.68,0.752,1.68,1.68v8.049c0,0.928-0.76,1.68-1.68,1.68h-4.12l1.62-1.623
		c0.22-0.327,0.18-0.775-0.12-1.067c-0.29-0.293-0.74-0.334-1.07-0.12l-3.05,3.056c-0.33,0.328-0.33,0.86,0,1.188l3.02,3.026
		c0.33,0.239,0.8,0.206,1.1-0.095c0.29-0.293,0.33-0.744,0.11-1.072l-1.61-1.613h4.12c1.85,0,3.36-1.505,3.36-3.36V3.776
		c0-1.856-1.51-3.36-3.36-3.36h-1.41V2.096z"/>
	<path d="M10.86,22.32c0,0.928-0.75,1.68-1.68,1.68c-0.93,0-1.68-0.752-1.68-1.68c0-0.928,0.75-1.68,1.68-1.68
		C10.11,20.64,10.86,21.392,10.86,22.32z"/>
</g>
<g id="Layer_1">
</g>
</svg>
