<?xml version="1.0" encoding="iso-8859-1"?>
<!-- Generator: Adobe Illustrator 19.0.0, SVG Export Plug-In . SVG Version: 6.00 Build 0)  -->
<svg version="1.1" xmlns="http://www.w3.org/2000/svg" xmlns:xlink="http://www.w3.org/1999/xlink" x="0px" y="0px"
	 viewBox="0 0 22.621 22.351" style="enable-background:new 0 0 22.621 22.351;" xml:space="preserve">
<g id="search">
	<path style="stroke:#FFFFFF;stroke-width:0.5;" d="M-720.743,379.221c1.249-1.608,1.993-3.628,1.993-5.823
		c0-5.246-4.253-9.5-9.5-9.5c-5.247,0-9.5,4.254-9.5,9.5c0,5.247,4.253,9.5,9.5,9.5c2.332,0,4.468-0.839,6.121-2.234l4.793,4.793
		c0.39,0.39,1.024,0.39,1.414,0c0.391-0.391,0.391-1.024,0-1.414L-720.743,379.221z M-728.25,381c-4.197,0-7.6-3.403-7.6-7.601
		c0-4.197,3.403-7.6,7.6-7.6s7.6,3.403,7.6,7.6C-720.65,377.596-724.053,381-728.25,381z"/>
</g>
<g id="Layer_1">
</g>
</svg>
