<?xml version="1.0" encoding="iso-8859-1"?>
<!-- Generator: Adobe Illustrator 19.0.0, SVG Export Plug-In . SVG Version: 6.00 Build 0)  -->
<svg version="1.1" xmlns="http://www.w3.org/2000/svg" xmlns:xlink="http://www.w3.org/1999/xlink" x="0px" y="0px"
	 viewBox="0 0 22.121 21.852" style="enable-background:new 0 0 22.121 21.852;" xml:space="preserve">
<g id="search-fill">
	<path d="M-719,373.648c0,2.195-0.744,4.215-1.993,5.823l4.821,4.822c0.391,0.39,0.391,1.023,0,1.414c-0.39,0.39-1.024,0.39-1.414,0
		l-4.793-4.793c-1.653,1.395-3.789,2.234-6.121,2.234c-5.247,0-9.5-4.253-9.5-9.5c0-5.246,4.253-9.5,9.5-9.5
		C-723.253,364.148-719,368.402-719,373.648z M-736.1,373.648c0,4.198,3.403,7.601,7.6,7.601s7.6-3.403,7.6-7.601
		c0-4.197-3.403-7.6-7.6-7.6S-736.1,369.451-736.1,373.648z M-728.459,378.579c2.762,0,5-2.239,5-5c0-2.762-2.238-5-5-5
		c-2.761,0-5,2.238-5,5C-733.459,376.341-731.22,378.579-728.459,378.579z"/>
</g>
<g id="Layer_1">
</g>
</svg>
