<?xml version="1.0" encoding="iso-8859-1"?>
<!-- Generator: Adobe Illustrator 19.0.0, SVG Export Plug-In . SVG Version: 6.00 Build 0)  -->
<svg version="1.1" xmlns="http://www.w3.org/2000/svg" xmlns:xlink="http://www.w3.org/1999/xlink" x="0px" y="0px"
	 viewBox="0 0 24 24" style="enable-background:new 0 0 24 24;" xml:space="preserve">
<g id="settings">
	<path style="stroke:#FFFFFF;stroke-width:1.8;" d="M-734.264,368.565l-0.636-0.636L-734.264,368.565l2.829-2.828
		c0.039-0.039,0.102-0.039,0.141,0l0.95,0.95c1.197,1.197,3.244,0.349,3.244-1.344V364c0-0.055,0.044-0.1,0.1-0.1h4
		c0.055,0,0.1,0.045,0.1,0.1v1.343c0,1.693,2.046,2.54,3.243,1.343l0.949-0.949c0.04-0.039,0.103-0.039,0.142,0l2.828,2.828
		c0.039,0.039,0.039,0.103,0,0.142l-0.949,0.949c-1.197,1.197-0.35,3.244,1.343,3.244H-714c0.055,0,0.1,0.045,0.1,0.1v4
		c0,0.055-0.045,0.1-0.1,0.1h-1.344c-1.693,0-2.54,2.047-1.343,3.244l0.949,0.949c0.04,0.039,0.04,0.103,0,0.142l-2.828,2.828
		c-0.039,0.039-0.102,0.039-0.141,0l-0.637,0.637l0.637-0.637l-0.95-0.949c-1.197-1.197-3.243-0.35-3.243,1.343V386
		c0,0.055-0.045,0.1-0.1,0.1h-4c-0.056,0-0.1-0.045-0.1-0.1v-1.343c0-1.693-2.047-2.541-3.244-1.344l-0.95,0.95
		c-0.039,0.039-0.102,0.039-0.141,0l-2.829-2.828c-0.039-0.039-0.039-0.103,0-0.142l0.95-0.949c1.197-1.197,0.349-3.244-1.344-3.244
		H-736c-0.056,0-0.1-0.045-0.1-0.1v-4c0-0.055,0.044-0.1,0.1-0.1h1.342c1.693,0,2.541-2.047,1.344-3.244l-0.95-0.949
		C-734.303,368.668-734.303,368.604-734.264,368.565z M-728.9,375c0,2.154,1.746,3.9,3.9,3.9c2.153,0,3.9-1.746,3.9-3.9
		c0-2.154-1.747-3.9-3.9-3.9C-727.154,371.1-728.9,372.846-728.9,375z"/>
</g>
<g id="Layer_1">
</g>
</svg>
