<?xml version="1.0" encoding="iso-8859-1"?>
<!-- Generator: Adobe Illustrator 19.0.0, SVG Export Plug-In . SVG Version: 6.00 Build 0)  -->
<svg version="1.1" xmlns="http://www.w3.org/2000/svg" xmlns:xlink="http://www.w3.org/1999/xlink" x="0px" y="0px"
	 viewBox="0 0 17.625 19.734" style="enable-background:new 0 0 17.625 19.734;" xml:space="preserve">
<g id="share">
	<path d="M8.456,0.022C8.274,0.06,8.1,0.151,7.958,0.293L4.404,3.847C4.269,4.233,4.355,4.68,4.664,4.989
		C4.983,5.308,5.449,5.39,5.843,5.235l1.822-1.821v7.475c0,0.553,0.448,1,1,1s1-0.447,1-1V3.414l1.822,1.822
		c0.395,0.154,0.86,0.072,1.178-0.247c0.31-0.309,0.396-0.756,0.261-1.143L9.372,0.293C9.124,0.044,8.777-0.046,8.456,0.022z"/>
	<path d="M1,5.945c-0.552,0-1,0.447-1,1v11.789c0,0.552,0.448,1,1,1h15.625c0.552,0,1-0.448,1-1V6.945c0-0.553-0.448-1-1-1h-2.938v2
		h1.938v9.789H2V7.945h1.643v-2H1z"/>
</g>
<g id="Layer_1">
</g>
</svg>
