<?xml version="1.0" encoding="iso-8859-1"?>
<!-- Generator: Adobe Illustrator 19.0.0, SVG Export Plug-In . SVG Version: 6.00 Build 0)  -->
<svg version="1.1" xmlns="http://www.w3.org/2000/svg" xmlns:xlink="http://www.w3.org/1999/xlink" x="0px" y="0px"
	 viewBox="0 0 19.218 24" style="enable-background:new 0 0 19.218 24;" xml:space="preserve">
<g id="shuffle_active">
	<path d="M10.01,11.377c-0.09-0.122-0.19-0.241-0.28-0.358l1.3-1.125c0.11,0.142,0.22,0.288,0.34,0.439
		c1.62,2.106,3.85,2.584,4.36,2.597h0.57l-1.33-1.327c-0.22-0.343-0.18-0.807,0.12-1.107c0.28-0.282,0.7-0.334,1.04-0.156l2.84,2.84
		c0.33,0.334,0.33,0.876,0,1.211l-2.73,2.727c-0.33,0.185-0.76,0.135-1.05-0.15c-0.3-0.297-0.34-0.752-0.13-1.093l1.24-1.234h-0.59
		H15.7C14.77,14.625,12,13.966,10.01,11.377z"/>
	<path d="M4.92,11.784c-0.01,0.017-0.03,0.035-0.05,0.054c-0.22,0.238-0.62,0.682-1.33,1.091c-0.76,0.44-1.9,0.854-3.53,0.842
		L0,15.483c1.95,0.014,3.38-0.485,4.4-1.072c0.93-0.543,1.49-1.149,1.73-1.407c0.01-0.02,0.03-0.039,0.05-0.054
		c0.16-0.179,0.33-0.356,0.5-0.535c1.17-1.251,2.44-2.61,4.69-5.521c1.62-2.106,3.85-2.584,4.36-2.596h0.57l-1.33,1.326
		c-0.22,0.343-0.18,0.807,0.12,1.108c0.28,0.281,0.7,0.333,1.04,0.156l2.84-2.841c0.33-0.334,0.33-0.876,0-1.21l-2.73-2.728
		c-0.33-0.185-0.76-0.135-1.05,0.15c-0.3,0.297-0.34,0.752-0.13,1.093l1.24,1.234h-0.59H15.7C14.77,2.603,12,3.261,10.01,5.85
		c-2.19,2.845-3.42,4.155-4.58,5.395l-0.01,0.002C5.26,11.426,5.09,11.604,4.92,11.784z"/>
	<path d="M11.32,22.288c0,0.946-0.76,1.712-1.71,1.712c-0.94,0-1.71-0.766-1.71-1.712c0-0.945,0.77-1.712,1.71-1.712
		C10.56,20.576,11.32,21.343,11.32,22.288z"/>
	<path d="M4.87,5.389c0.02,0.019,0.04,0.037,0.05,0.054C5.09,5.624,5.26,5.801,5.43,5.98v0.002c0.41,0.436,0.82,0.882,1.29,1.4
		l1.29-1.123c-0.48-0.54-0.91-1-1.33-1.446c-0.17-0.179-0.34-0.357-0.5-0.536C6.16,4.262,6.15,4.244,6.13,4.224
		C5.89,3.966,5.33,3.359,4.4,2.816C3.38,2.229,1.95,1.731,0,1.744l0.01,1.712c1.63-0.011,2.77,0.402,3.53,0.842
		C4.25,4.707,4.65,5.151,4.87,5.389z"/>
</g>
<g id="Layer_1">
</g>
</svg>
