<?xml version="1.0" encoding="iso-8859-1"?>
<!-- Generator: Adobe Illustrator 19.0.0, SVG Export Plug-In . SVG Version: 6.00 Build 0)  -->
<svg version="1.1" xmlns="http://www.w3.org/2000/svg" xmlns:xlink="http://www.w3.org/1999/xlink" x="0px" y="0px"
	 viewBox="0 0 19.257 17.264" style="enable-background:new 0 0 19.257 17.264;" xml:space="preserve">
<g id="shuffle">
	<path d="M4.93,11.809c-0.01,0.017-0.03,0.035-0.05,0.055c-0.22,0.238-0.63,0.683-1.33,1.093c-0.77,0.441-1.9,0.855-3.54,0.844
		L0,15.517c1.95,0.013,3.39-0.487,4.41-1.075c0.93-0.544,1.49-1.152,1.73-1.411c0.02-0.019,0.03-0.038,0.05-0.053
		c0.17-0.18,0.33-0.357,0.5-0.537c1.18-1.253,2.45-2.615,4.7-5.532c1.63-2.111,3.86-2.589,4.37-2.602h0.57L15,5.636
		c-0.22,0.344-0.18,0.808,0.12,1.11c0.28,0.282,0.71,0.334,1.04,0.156l2.85-2.846c0.33-0.335,0.33-0.879,0-1.214l-2.73-2.733
		c-0.34-0.185-0.77-0.135-1.06,0.15c-0.3,0.298-0.34,0.754-0.12,1.096l1.23,1.236h-0.59l0,0c-0.94,0.017-3.71,0.677-5.71,3.271
		c-2.2,2.851-3.43,4.165-4.59,5.407v0.002C5.27,11.45,5.1,11.628,4.93,11.809z"/>
	<path d="M4.88,5.4C4.9,5.42,4.92,5.438,4.93,5.455C5.1,5.636,5.27,5.814,5.44,5.993v0.001c0.41,0.438,0.83,0.885,1.29,1.404
		l1.3-1.126C7.54,5.732,7.11,5.27,6.69,4.823c-0.17-0.18-0.33-0.357-0.5-0.537C6.17,4.271,6.16,4.253,6.14,4.233
		C5.9,3.975,5.35,3.366,4.41,2.822C3.39,2.234,1.95,1.734,0,1.747l0.01,1.716c1.64-0.011,2.77,0.403,3.54,0.844
		C4.25,4.717,4.66,5.162,4.88,5.4z"/>
	<path d="M10.03,11.402c-0.09-0.123-0.19-0.243-0.28-0.36l1.3-1.127c0.11,0.143,0.22,0.289,0.34,0.44
		c1.63,2.111,3.86,2.589,4.37,2.602h0.57L15,11.628c-0.22-0.344-0.18-0.808,0.12-1.11c0.28-0.282,0.71-0.334,1.04-0.156l2.85,2.846
		c0.33,0.335,0.33,0.879,0,1.214l-2.73,2.733c-0.34,0.185-0.77,0.135-1.06-0.15c-0.3-0.298-0.34-0.754-0.12-1.096l1.23-1.236h-0.59
		l0,0C14.8,14.656,12.03,13.996,10.03,11.402z"/>
</g>
<g id="Layer_1">
</g>
</svg>
