<?xml version="1.0" encoding="iso-8859-1"?>
<!-- Generator: Adobe Illustrator 19.0.0, SVG Export Plug-In . SVG Version: 6.00 Build 0)  -->
<svg version="1.1" xmlns="http://www.w3.org/2000/svg" xmlns:xlink="http://www.w3.org/1999/xlink" x="0px" y="0px"
	 viewBox="0 0 20.037 20.43" style="enable-background:new 0 0 20.037 20.43;" xml:space="preserve">
<g id="sidebar-collapse">
	<path d="M1.003,0C0.449,0,0,0.449,0,1.003v18.39c0,0.554,0.449,1.003,1.003,1.003c0.554,0,1.003-0.449,1.003-1.003V1.003
		C2.006,0.449,1.557,0,1.003,0z"/>
	<path d="M6.044,1.003C6.044,0.449,6.493,0,7.047,0C7.6,0,8.049,0.449,8.049,1.003v18.39c0,0.554-0.449,1.003-1.002,1.003
		c-0.554,0-1.003-0.449-1.003-1.003V1.003z"/>
	<path d="M12.046,1.223c0-0.859,0.94-1.386,1.673-0.938L19.51,3.82c0.161,0.099,0.291,0.235,0.382,0.394
		c0.093,0.164,0.145,0.351,0.145,0.545V19.33c0,0.607-0.493,1.1-1.1,1.1h-5.791c-0.608,0-1.1-0.493-1.1-1.1V1.223z M14.046,2.828
		V18.43h3.991V5.264L14.046,2.828z"/>
</g>
<g id="Layer_1">
</g>
</svg>
