<?xml version="1.0" encoding="iso-8859-1"?>
<!-- Generator: Adobe Illustrator 19.0.0, SVG Export Plug-In . SVG Version: 6.00 Build 0)  -->
<svg version="1.1" xmlns="http://www.w3.org/2000/svg" xmlns:xlink="http://www.w3.org/1999/xlink" x="0px" y="0px"
	 viewBox="0 0 17.292 11.89" style="enable-background:new 0 0 17.292 11.89;" xml:space="preserve">
<g id="sort">
	<path d="M4.531,11.868c0.183-0.039,0.357-0.129,0.499-0.271l3.554-3.554c0.069-0.199,0.08-0.413,0.032-0.616
		C8.571,7.234,8.474,7.051,8.323,6.901C8.219,6.797,8.099,6.717,7.971,6.664C7.707,6.553,7.41,6.55,7.144,6.654L5.322,8.476V1
		c0-0.552-0.447-1-1-1c-0.552,0-1,0.448-1,1v7.476L1.5,6.653C1.106,6.5,0.641,6.582,0.322,6.901C0.211,7.011,0.128,7.14,0.075,7.278
		c-0.096,0.245-0.1,0.518-0.013,0.766l3.553,3.553C3.864,11.845,4.211,11.936,4.531,11.868z"/>
	<path d="M12.76,0.022c-0.183,0.039-0.357,0.129-0.499,0.271L8.707,3.847C8.638,4.046,8.627,4.26,8.675,4.463
		C8.72,4.656,8.817,4.839,8.968,4.989C9.072,5.093,9.192,5.173,9.32,5.226c0.263,0.111,0.561,0.114,0.827,0.01l1.822-1.822v7.476
		c0,0.552,0.447,1,1,1c0.552,0,1-0.448,1-1V3.414l1.822,1.823c0.394,0.153,0.859,0.071,1.178-0.248
		c0.111-0.11,0.194-0.239,0.247-0.377c0.096-0.245,0.1-0.518,0.013-0.766l-3.553-3.553C13.427,0.045,13.08-0.046,12.76,0.022z"/>
</g>
<g id="Layer_1">
</g>
</svg>
