<?xml version="1.0" encoding="iso-8859-1"?>
<!-- Generator: Adobe Illustrator 19.0.0, SVG Export Plug-In . SVG Version: 6.00 Build 0)  -->
<svg version="1.1" xmlns="http://www.w3.org/2000/svg" xmlns:xlink="http://www.w3.org/1999/xlink" x="0px" y="0px"
	 viewBox="0 0 24 19.984" style="enable-background:new 0 0 24 19.984;" xml:space="preserve">
<g id="web-browser">
	<path d="M4.916,0c-0.994,0-1.8,0.806-1.8,1.8v10.956c0,0.994,0.806,1.8,1.8,1.8h14.168c0.994,0,1.8-0.806,1.8-1.8V1.8
		c0-0.994-0.806-1.8-1.8-1.8H4.916z M5.116,12.556V2h13.768v10.556H5.116z"/>
	<path d="M1.05,17.885c-0.58,0-1.05,0.47-1.05,1.049c0,0.58,0.47,1.05,1.05,1.05h21.9c0.58,0,1.05-0.47,1.05-1.05
		c0-0.579-0.47-1.049-1.05-1.049H1.05z"/>
</g>
<g id="Layer_1">
</g>
</svg>
